<?xml version="1.0" encoding="UTF-8"?>
<svg version="1.1" xmlns="http://www.w3.org/2000/svg" width="314" height="314">
<path d="M0 0 C0.74883453 -0.00570007 1.49766907 -0.01140015 2.26919556 -0.01727295 C3.85083631 -0.02667245 5.43249621 -0.0332367 7.01416016 -0.03710938 C9.37309514 -0.0467083 11.73111653 -0.07773414 14.08984375 -0.109375 C56.08698079 -0.40098552 93.71477922 18.80054968 123.5390625 47.328125 C148.68471668 73.13261728 167.02001169 110.67405544 167.2421875 147.1640625 C167.24788757 147.91289703 167.25358765 148.66173157 167.25946045 149.43325806 C167.26885995 151.01489881 167.2754242 152.59655871 167.27929688 154.17822266 C167.2888958 156.53715764 167.31992164 158.89517903 167.3515625 161.25390625 C167.64317302 203.25104329 148.44163782 240.87884172 119.9140625 270.703125 C94.10957022 295.84877918 56.56813206 314.18407419 20.078125 314.40625 C19.32929047 314.41195007 18.58045593 314.41765015 17.80892944 314.42352295 C16.22728869 314.43292245 14.64562879 314.4394867 13.06396484 314.44335938 C10.70502986 314.4529583 8.34700847 314.48398414 5.98828125 314.515625 C-36.00885579 314.80723552 -73.63665422 295.60570032 -103.4609375 267.078125 C-128.60659168 241.27363272 -146.94188669 203.73219456 -147.1640625 167.2421875 C-147.16976257 166.49335297 -147.17546265 165.74451843 -147.18133545 164.97299194 C-147.19073495 163.39135119 -147.1972992 161.80969129 -147.20117188 160.22802734 C-147.2107708 157.86909236 -147.24179664 155.51107097 -147.2734375 153.15234375 C-147.56504802 111.15520671 -128.36351282 73.52740828 -99.8359375 43.703125 C-74.03144522 18.55747082 -36.49000706 0.22217581 0 0 Z " fill="#E9D7FC" transform="translate(146.9609375,-0.203125)"/>
<path d="M0 0 C15.18 0 30.36 0 46 0 C48.17456301 4.34912601 49.46389682 7.16688314 50.5 11.6875 C51.69085299 16.7407492 53.02012998 21.73183854 54.44921875 26.72265625 C55 29 55 29 55 32 C55.66 32 56.32 32 57 32 C57.25394531 32.83402344 57.50789063 33.66804688 57.76953125 34.52734375 C60.09499135 42.14072395 60.09499135 42.14072395 62.625 49.6875 C63.96793995 53.63646935 64.76917608 57.60256489 65.52734375 61.69921875 C66.11394276 64.55464699 67.03804687 67.25156248 68 70 C68 70.66 68 71.32 68 72 C68.66 72 69.32 72 70 72 C70.18175781 72.95261719 70.36351562 73.90523438 70.55078125 74.88671875 C70.80214844 76.14097656 71.05351562 77.39523438 71.3125 78.6875 C71.55613281 79.92886719 71.79976563 81.17023438 72.05078125 82.44921875 C72.97486109 85.90596185 74.16244665 87.97422104 76 91 C77.35248638 94.33245284 78.51899202 97.72437345 79.6875 101.125 C80.00783203 102.03121094 80.32816406 102.93742187 80.65820312 103.87109375 C83 110.61187367 83 110.61187367 83 114 C84.32 113.67 85.64 113.34 87 113 C87.06058594 112.39671875 87.12117188 111.7934375 87.18359375 111.171875 C87.26738281 110.37265625 87.35117188 109.5734375 87.4375 108.75 C87.55931641 107.56664062 87.55931641 107.56664062 87.68359375 106.359375 C87.97634993 104.17635361 88.42064419 102.1226818 89 100 C89.66 100 90.32 100 91 100 C91.103125 98.700625 91.20625 97.40125 91.3125 96.0625 C91.85478583 91.08761699 93.27299565 86.67417483 95 82 C95.495 80.515 95.495 80.515 96 79 C96.66 79 97.32 79 98 79 C98.13277344 78.15695313 98.26554687 77.31390625 98.40234375 76.4453125 C98.57894531 75.34960938 98.75554687 74.25390625 98.9375 73.125 C99.11152344 72.03445312 99.28554687 70.94390625 99.46484375 69.8203125 C100 67 100 67 101 65 C101.66 65 102.32 65 103 65 C104.32 59.39 105.64 53.78 107 48 C107.66 48 108.32 48 109 48 C109.04125 46.700625 109.0825 45.40125 109.125 44.0625 C109.69894448 38.12048654 111.64031548 32.89413612 113.69897461 27.33911133 C115.24074343 23.17601131 116.59674297 19.06053181 117.6875 14.75 C118.64050848 11.03887286 119.83552356 8.19966083 122 5 C122.66 3.35 123.32 1.7 124 0 C138.85 0 153.7 0 169 0 C168 5 168 5 166.5625 7.75 C165.24165849 10.49735035 164.66451203 12.33149683 164.125 15.25 C163.22159416 19.8129651 161.33294781 23.43152518 159.1640625 27.515625 C157.73468089 30.56625152 157.07336546 33.48239635 156.5546875 36.796875 C156 39 156 39 154.66796875 41.58984375 C151.98331385 47.07861125 150.34620596 52.9204613 148.51757812 58.74023438 C148.07381836 60.11598633 148.07381836 60.11598633 147.62109375 61.51953125 C147.3573999 62.35589111 147.09370605 63.19225098 146.82202148 64.05395508 C146 66 146 66 144 67 C143.49188137 68.60761904 142.9973496 70.22076419 142.57128906 71.85205078 C141.94528456 74.2057207 141.22845841 76.51835512 140.4921875 78.83984375 C140.09580078 80.0918457 140.09580078 80.0918457 139.69140625 81.36914062 C139.42199219 82.21669922 139.15257812 83.06425781 138.875 83.9375 C138.59785156 84.81212891 138.32070312 85.68675781 138.03515625 86.58789062 C137.35764961 88.72554088 136.67924519 90.86290167 136 93 C135.34 93 134.68 93 134 93 C133.80664062 93.90363281 133.61328125 94.80726563 133.4140625 95.73828125 C133.15367187 96.91777344 132.89328125 98.09726563 132.625 99.3125 C132.36976563 100.48425781 132.11453125 101.65601563 131.8515625 102.86328125 C131 106 131 106 129 109 C128.62928725 110.57072364 128.32220298 112.15715504 128.0625 113.75 C127.10082611 118.90129192 125.31432191 123.24592297 123.05859375 127.97265625 C120.05545646 134.4617882 117.99333941 141.13994361 116 148 C115.34 148 114.68 148 114 148 C113.86464844 148.54398438 113.72929687 149.08796875 113.58984375 149.6484375 C113.39519531 150.42445313 113.20054687 151.20046875 113 152 C112.77441406 152.89976562 112.54882812 153.79953125 112.31640625 154.7265625 C112.06761719 155.68304688 111.81882812 156.63953125 111.5625 157.625 C111.31628906 158.58664063 111.07007813 159.54828125 110.81640625 160.5390625 C110 163 110 163 108 165 C105.93722534 165.24050903 105.93722534 165.24050903 103.36669922 165.22705078 C102.40585419 165.22689972 101.44500916 165.22674866 100.45504761 165.22659302 C99.41542877 165.21627045 98.37580994 165.20594788 97.3046875 165.1953125 C96.24210724 165.1924826 95.17952698 165.18965271 94.08474731 165.18673706 C90.68138501 165.17551639 87.27828314 165.15040837 83.875 165.125 C81.57161838 165.11497264 79.26823264 165.10584637 76.96484375 165.09765625 C71.30980655 165.07557093 65.65492187 165.04207489 60 165 C57.17651455 158.74171189 54.62994434 152.48545938 52.375 146 C52.0759375 145.16210938 51.776875 144.32421875 51.46875 143.4609375 C50.04268981 139.38467697 48.84221115 135.43346748 48.0390625 131.1875 C47.21604395 127.19191286 45.65499297 125.12962858 43 122 C41.617879 119.21907098 40.52692127 116.34363774 39.4375 113.4375 C39.13231445 112.63973145 38.82712891 111.84196289 38.51269531 111.02001953 C36.48338301 105.60160277 34.88333283 100.19197116 33.61328125 94.54296875 C32.73039533 90.88208508 31.3672432 87.50727604 30 84 C29.63326406 82.69095644 29.27848431 81.37848631 28.9375 80.0625 C28.628125 79.051875 28.31875 78.04125 28 77 C27.34 76.67 26.68 76.34 26 76 C25.22041576 73.20526404 24.54602072 70.45705079 23.9375 67.625 C23.59354339 66.07527729 23.24853203 64.52578821 22.90234375 62.9765625 C22.67792603 61.94136475 22.67792603 61.94136475 22.44897461 60.88525391 C21.98003877 58.79371382 21.98003877 58.79371382 21 56 C20.34 56 19.68 56 19 56 C18.76925781 55.28457031 18.53851563 54.56914062 18.30078125 53.83203125 C17.81158203 52.33736328 17.81158203 52.33736328 17.3125 50.8125 C16.99925781 49.84957031 16.68601562 48.88664062 16.36328125 47.89453125 C13.63831758 39.90145321 10.42648415 32.07059679 7.32421875 24.21875 C6.4453125 21.97916667 5.56640625 19.73958333 4.6875 17.5 C4.23310547 16.36046875 3.77871094 15.2209375 3.31054688 14.046875 C2.88193359 12.94859375 2.45332031 11.8503125 2.01171875 10.71875 C1.43103638 9.24825195 1.43103638 9.24825195 0.83862305 7.74804688 C0 5 0 5 0 0 Z " fill="#131213" transform="translate(73,75)"/>
<path d="M0 0 C0.74883453 -0.00570007 1.49766907 -0.01140015 2.26919556 -0.01727295 C3.85083631 -0.02667245 5.43249621 -0.0332367 7.01416016 -0.03710938 C9.37309514 -0.0467083 11.73111653 -0.07773414 14.08984375 -0.109375 C56.08698079 -0.40098552 93.71477922 18.80054968 123.5390625 47.328125 C148.68471668 73.13261728 167.02001169 110.67405544 167.2421875 147.1640625 C167.24788757 147.91289703 167.25358765 148.66173157 167.25946045 149.43325806 C167.26885995 151.01489881 167.2754242 152.59655871 167.27929688 154.17822266 C167.2888958 156.53715764 167.31992164 158.89517903 167.3515625 161.25390625 C167.64317302 203.25104329 148.44163782 240.87884172 119.9140625 270.703125 C94.10957022 295.84877918 56.56813206 314.18407419 20.078125 314.40625 C19.32929047 314.41195007 18.58045593 314.41765015 17.80892944 314.42352295 C16.22728869 314.43292245 14.64562879 314.4394867 13.06396484 314.44335938 C10.70502986 314.4529583 8.34700847 314.48398414 5.98828125 314.515625 C-36.00885579 314.80723552 -73.63665422 295.60570032 -103.4609375 267.078125 C-128.60659168 241.27363272 -146.94188669 203.73219456 -147.1640625 167.2421875 C-147.16976257 166.49335297 -147.17546265 165.74451843 -147.18133545 164.97299194 C-147.19073495 163.39135119 -147.1972992 161.80969129 -147.20117188 160.22802734 C-147.2107708 157.86909236 -147.24179664 155.51107097 -147.2734375 153.15234375 C-147.56504802 111.15520671 -128.36351282 73.52740828 -99.8359375 43.703125 C-74.03144522 18.55747082 -36.49000706 0.22217581 0 0 Z M-32.9609375 13.203125 C-32.9609375 13.863125 -32.9609375 14.523125 -32.9609375 15.203125 C-34.8790625 15.326875 -34.8790625 15.326875 -36.8359375 15.453125 C-62.14113255 18.4348224 -84.03923815 40.98911222 -100.9609375 58.203125 C-101.75757813 58.9765625 -102.55421875 59.75 -103.375 60.546875 C-116.77871846 74.21705273 -116.77871846 74.21705273 -122.9609375 91.203125 C-123.6209375 91.203125 -124.2809375 91.203125 -124.9609375 91.203125 C-125.22648437 91.80640625 -125.49203125 92.4096875 -125.765625 93.03125 C-126.11882812 93.83046875 -126.47203125 94.6296875 -126.8359375 95.453125 C-127.35800781 96.63648437 -127.35800781 96.63648437 -127.890625 97.84375 C-128.56013125 99.3195959 -129.2694857 100.77870764 -130.03515625 102.20703125 C-131.07364745 104.44614098 -131.48740338 106.45965176 -131.8984375 108.890625 C-132.82435497 113.84829336 -134.30258285 118.45095817 -135.9609375 123.203125 C-137.4921694 127.96695757 -138.30267397 132.41995188 -138.71484375 137.3828125 C-138.9609375 139.203125 -138.9609375 139.203125 -139.9609375 140.203125 C-140.22229375 144.65452711 -140.15092575 149.12000655 -140.1484375 153.578125 C-140.14835693 154.88821533 -140.14827637 156.19830566 -140.14819336 157.5480957 C-140.74987591 174.24019278 -140.74987591 174.24019278 -136.9609375 190.203125 C-136.3009375 190.203125 -135.6409375 190.203125 -134.9609375 190.203125 C-134.8990625 191.9046875 -134.8990625 191.9046875 -134.8359375 193.640625 C-133.51204801 205.44375243 -128.06728321 217.1774581 -121.9609375 227.203125 C-120.9709375 227.203125 -119.9809375 227.203125 -118.9609375 227.203125 C-118.6309375 229.183125 -118.3009375 231.163125 -117.9609375 233.203125 C-117.3009375 233.203125 -116.6409375 233.203125 -115.9609375 233.203125 C-115.80238281 233.93917969 -115.64382812 234.67523438 -115.48046875 235.43359375 C-114.0238501 241.52563972 -112.85933365 245.06670158 -107.9609375 249.203125 C-105.85443413 251.58104323 -103.79231967 253.99349351 -101.73046875 256.41015625 C-100.85455078 257.29767578 -100.85455078 257.29767578 -99.9609375 258.203125 C-99.3009375 258.203125 -98.6409375 258.203125 -97.9609375 258.203125 C-97.9609375 258.863125 -97.9609375 259.523125 -97.9609375 260.203125 C-97.3009375 260.203125 -96.6409375 260.203125 -95.9609375 260.203125 C-95.9609375 260.863125 -95.9609375 261.523125 -95.9609375 262.203125 C-95.3009375 262.203125 -94.6409375 262.203125 -93.9609375 262.203125 C-93.8784375 262.780625 -93.7959375 263.358125 -93.7109375 263.953125 C-92.75515224 266.82048079 -91.11009007 268.12113345 -88.9609375 270.203125 C-88.4659375 271.688125 -88.4659375 271.688125 -87.9609375 273.203125 C-85.87991398 274.71376692 -85.87991398 274.71376692 -83.3359375 276.078125 C-80.18303511 277.88554984 -77.17521155 279.70272703 -74.2734375 281.890625 C-72.01567804 283.55732007 -69.87141536 284.76581626 -67.2734375 285.828125 C-64.36896566 287.03375482 -62.40892726 288.29913296 -59.9609375 290.203125 C-59.3009375 290.203125 -58.6409375 290.203125 -57.9609375 290.203125 C-57.9609375 290.863125 -57.9609375 291.523125 -57.9609375 292.203125 C-56.9503125 292.63625 -55.9396875 293.069375 -54.8984375 293.515625 C-52.49587109 294.54529632 -50.10955456 295.59124032 -47.73046875 296.67578125 C-43.82099379 298.35097277 -39.84437991 299.36416921 -35.7109375 300.328125 C-28.19803427 302.12409274 -28.19803427 302.12409274 -24.9609375 303.203125 C-22.2911238 303.40675486 -19.63425331 303.57469168 -16.9609375 303.703125 C-9.36634291 304.06798986 -9.36634291 304.06798986 -5.9609375 305.203125 C-1.31992239 305.44588579 3.32981869 305.39753865 7.9765625 305.390625 C8.98691055 305.39021713 8.98691055 305.39021713 10.01766968 305.38980103 C18.48615126 305.37405356 26.91612017 305.20669195 35.3515625 304.390625 C36.11267334 304.32061279 36.87378418 304.25060059 37.65795898 304.1784668 C43.07711701 303.57027439 47.92596184 302.05450626 53.0390625 300.203125 C54.51234308 299.70113147 55.98629675 299.20110877 57.4609375 298.703125 C58.90392441 298.20392953 60.34663409 297.70393197 61.7890625 297.203125 C62.51738281 296.955625 63.24570313 296.708125 63.99609375 296.453125 C68.00393022 295.05656492 71.41042861 293.43564672 75.0390625 291.203125 C77.68642551 290.33915138 80.31247034 289.80389954 83.0390625 289.203125 C83.0390625 288.543125 83.0390625 287.883125 83.0390625 287.203125 C84.14701172 286.80287109 84.14701172 286.80287109 85.27734375 286.39453125 C92.7028326 283.19117326 98.73453125 276.77489351 104.640625 271.38671875 C106.73007062 269.48443846 108.84208795 267.61695496 110.9765625 265.765625 C111.61335937 265.20617187 112.25015625 264.64671875 112.90625 264.0703125 C114.50658149 262.66928969 116.11781987 261.28070928 117.734375 259.8984375 C126.78177212 251.98504656 133.38888272 243.34641294 138.0390625 232.203125 C138.0390625 231.543125 138.0390625 230.883125 138.0390625 230.203125 C138.6990625 230.203125 139.3590625 230.203125 140.0390625 230.203125 C141.16824283 227.83003478 142.29248315 225.45480506 143.4140625 223.078125 C143.73117187 222.41296875 144.04828125 221.7478125 144.375 221.0625 C146.20911742 217.16500049 147.69038153 213.29974345 149.0390625 209.203125 C149.89429743 207.38121544 150.76921254 205.56840752 151.6640625 203.765625 C153.77415163 199.2360495 154.58871509 196.14999835 154.0390625 191.203125 C154.6990625 191.203125 155.3590625 191.203125 156.0390625 191.203125 C158.79579509 177.36593326 159.27578991 163.97681073 159.07177734 149.90234375 C159.05142063 148.22276292 159.0419555 146.54296931 159.04931641 144.86328125 C159.09662093 133.84879726 156.60625386 124.82480705 152.6328125 114.56640625 C151.31257724 111.13039038 150.46656332 107.87844454 150.0390625 104.203125 C149.3790625 104.203125 148.7190625 104.203125 148.0390625 104.203125 C147.8121875 102.90375 147.5853125 101.604375 147.3515625 100.265625 C146.20557108 94.99573746 143.85935403 90.75649643 141.0390625 86.203125 C140.3790625 86.203125 139.7190625 86.203125 139.0390625 86.203125 C138.6059375 84.7490625 138.6059375 84.7490625 138.1640625 83.265625 C137.39691568 80.09648297 137.39691568 80.09648297 135.0390625 79.203125 C134.8121875 78.213125 134.5853125 77.223125 134.3515625 76.203125 C132.87437441 70.43732632 128.62799105 65.66413002 124.37890625 61.625 C123.0390625 60.203125 123.0390625 60.203125 122.0390625 57.203125 C121.3790625 57.203125 120.7190625 57.203125 120.0390625 57.203125 C120.0390625 56.543125 120.0390625 55.883125 120.0390625 55.203125 C119.31589844 54.77773438 118.59273438 54.35234375 117.84765625 53.9140625 C114.60230475 51.93706117 112.58706604 49.69450349 110.1015625 46.828125 C104.98775411 41.05029802 104.98775411 41.05029802 99.0390625 36.203125 C97.7190625 36.203125 96.3990625 36.203125 95.0390625 36.203125 C94.7090625 35.213125 94.3790625 34.223125 94.0390625 33.203125 C88.49365182 29.29915588 82.48288513 26.09787981 76.046875 23.95703125 C72.65790121 22.68451775 69.5173556 20.90876411 66.3359375 19.19140625 C63.84342134 17.93963254 63.84342134 17.93963254 60.0390625 18.203125 C60.0390625 17.543125 60.0390625 16.883125 60.0390625 16.203125 C53.44359323 14.28549957 46.79377764 12.61867717 40.1015625 11.078125 C39.38758301 10.90764648 38.67360352 10.73716797 37.93798828 10.56152344 C15.55312726 5.50898357 -11.21187228 5.66956325 -32.9609375 13.203125 Z " fill="#29252C" transform="translate(146.9609375,-0.203125)"/>
<path d="M0 0 C0.99 0.495 0.99 0.495 2 1 C1.01 1.495 1.01 1.495 0 2 C0 1.34 0 0.68 0 0 Z M-3 2 C-2.01 2.33 -1.02 2.66 0 3 C-0.33 3.66 -0.66 4.32 -1 5 C-0.34 5 0.32 5 1 5 C0.67 6.32 0.34 7.64 0 9 C-0.66 9 -1.32 9 -2 9 C-2.226875 9.53625 -2.45375 10.0725 -2.6875 10.625 C-4 13 -4 13 -6.5 15.9375 C-9.02281987 18.71567034 -9.02281987 18.71567034 -9.94140625 21.35546875 C-11.12654388 24.31612623 -12.67068758 26.72288157 -14.4375 29.375 C-17.11306366 33.49425322 -19.26672011 37.41190617 -21 42 C-21.66 42 -22.32 42 -23 42 C-23.19335938 42.60328125 -23.38671875 43.2065625 -23.5859375 43.828125 C-23.84632812 44.62734375 -24.10671875 45.4265625 -24.375 46.25 C-24.63023438 47.03890625 -24.88546875 47.8278125 -25.1484375 48.640625 C-26 51 -26 51 -27.04296875 53.00390625 C-28.11797403 55.24606013 -28.52351619 57.23908144 -28.9375 59.6875 C-29.86341747 64.64516836 -31.34164535 69.24783317 -33 74 C-34.5312319 78.76383257 -35.34173647 83.21682688 -35.75390625 88.1796875 C-36 90 -36 90 -37 91 C-37.26226453 95.4095703 -37.18970447 99.83361116 -37.1875 104.25 C-37.18814453 105.55348389 -37.18878906 106.85696777 -37.18945312 108.19995117 C-37.12997852 119.22775922 -36.33905678 130.06038437 -35 141 C-34.34 141 -33.68 141 -33 141 C-32.84144531 141.70382813 -32.68289062 142.40765625 -32.51953125 143.1328125 C-29.9438153 154.03335625 -26.79029821 164.71557339 -20.91796875 174.328125 C-20 176 -20 176 -20 178 C-19.01 178 -18.02 178 -17 178 C-16.67 179.98 -16.34 181.96 -16 184 C-15.34 184 -14.68 184 -14 184 C-13.72027344 184.7734375 -13.44054687 185.546875 -13.15234375 186.34375 C-9.80272683 195.04629172 -5.77670292 201.00495282 1.4375 206.875 C2.283125 207.57625 3.12875 208.2775 4 209 C4 209.66 4 210.32 4 211 C4.66 211 5.32 211 6 211 C6 211.66 6 212.32 6 213 C6.66 213 7.32 213 8 213 C9.02611949 214.65071396 10.02308143 216.31970006 11 218 C11.8353125 218.804375 11.8353125 218.804375 12.6875 219.625 C14 221 14 221 14 224 C14.87785156 224.24878906 15.75570312 224.49757813 16.66015625 224.75390625 C20.16432545 226.06130973 22.49839787 227.64679195 25.4375 229.9375 C29.57774228 233.05109684 33.21139693 235.12211644 38 237 C40.15583274 238.21205708 42.01693048 239.50060597 44 241 C44 241.66 44 242.32 44 243 C44.639375 243.0825 45.27875 243.165 45.9375 243.25 C48.5641091 243.89325121 50.41665561 244.64211625 52.8125 245.8125 C58.89993319 248.6042533 65.34975386 249.96653538 71.83886719 251.48681641 C75.46488617 252.34785255 79.07495256 253.2718909 82.6875 254.1875 C92.04153255 256.55775259 100.68810892 257.27995497 110.3125 257.3125 C111.04731598 257.31511841 111.78213196 257.31773682 112.53921509 257.32043457 C129.92686027 257.32705204 146.67048827 255.08013515 163.29296875 249.83203125 C165.85076953 249.04586737 168.36883084 248.47620795 171 248 C170.67 250.31 170.34 252.62 170 255 C154.59402058 260.54433478 138.51825687 265.10278854 122.0390625 265.203125 C121.29022797 265.20882507 120.54139343 265.21452515 119.76986694 265.22039795 C118.18822619 265.22979745 116.60656629 265.2363617 115.02490234 265.24023438 C112.66596736 265.2498333 110.30794597 265.28085914 107.94921875 265.3125 C65.95208171 265.60411052 28.32428328 246.40257532 -1.5 217.875 C-26.64565418 192.07050772 -44.98094919 154.52906956 -45.203125 118.0390625 C-45.20882507 117.29022797 -45.21452515 116.54139343 -45.22039795 115.76986694 C-45.22979745 114.18822619 -45.2363617 112.60656629 -45.24023438 111.02490234 C-45.2498333 108.66596736 -45.28085914 106.30794597 -45.3125 103.94921875 C-45.55071914 69.64139714 -32.34827024 30.91615992 -8 6 C-5.3125 3.5 -5.3125 3.5 -3 2 Z " fill="#211E24" transform="translate(45,49)"/>
<path d="M0 0 C1.1232518 -0.00855011 1.1232518 -0.00855011 2.26919556 -0.01727295 C3.85083631 -0.02667245 5.43249621 -0.0332367 7.01416016 -0.03710938 C9.37309514 -0.0467083 11.73111653 -0.07773414 14.08984375 -0.109375 C33.6711483 -0.24560013 51.78663862 4.2001542 70.0390625 11.203125 C70.0390625 11.863125 70.0390625 12.523125 70.0390625 13.203125 C71.245625 13.6053125 71.245625 13.6053125 72.4765625 14.015625 C73.3221875 14.4075 74.1678125 14.799375 75.0390625 15.203125 C75.3690625 16.193125 75.6990625 17.183125 76.0390625 18.203125 C76.8021875 18.120625 77.5653125 18.038125 78.3515625 17.953125 C81.0390625 18.203125 81.0390625 18.203125 82.8515625 20.203125 C83.439375 21.193125 83.439375 21.193125 84.0390625 22.203125 C81.0390625 24.203125 81.0390625 24.203125 79.2265625 24.015625 C76.37914463 22.95801265 73.72888538 21.60916878 71.0390625 20.203125 C71.0390625 19.543125 71.0390625 18.883125 71.0390625 18.203125 C67.4090625 18.203125 63.7790625 18.203125 60.0390625 18.203125 C60.0390625 17.543125 60.0390625 16.883125 60.0390625 16.203125 C59.44738281 16.15414063 58.85570312 16.10515625 58.24609375 16.0546875 C57.45589844 15.97992188 56.66570312 15.90515625 55.8515625 15.828125 C54.68560547 15.72371094 54.68560547 15.72371094 53.49609375 15.6171875 C50.78884195 15.16095747 48.58513751 14.22381483 46.0390625 13.203125 C43.69662155 12.6318646 41.34045023 12.1153911 38.9765625 11.640625 C37.16478516 11.26744141 37.16478516 11.26744141 35.31640625 10.88671875 C15.23701024 7.37585942 -7.16647881 7.28001865 -26.9609375 12.203125 C-28.95801722 12.55353004 -30.95731267 12.89232175 -32.9609375 13.203125 C-32.9609375 13.863125 -32.9609375 14.523125 -32.9609375 15.203125 C-33.6415625 15.326875 -34.3221875 15.450625 -35.0234375 15.578125 C-60.35633782 20.96810379 -81.4596225 39.17090355 -98.9296875 57.33203125 C-100.9609375 59.203125 -100.9609375 59.203125 -102.9609375 59.203125 C-103.35925781 60.07710937 -103.35925781 60.07710937 -103.765625 60.96875 C-104.99396746 63.26486728 -106.36408689 65.00668518 -108.0859375 66.953125 C-108.62476563 67.56671875 -109.16359375 68.1803125 -109.71875 68.8125 C-110.33363281 69.50085938 -110.33363281 69.50085938 -110.9609375 70.203125 C-110.9609375 66.43973302 -109.89992463 65.47769255 -107.5859375 62.578125 C-106.95945312 61.78148437 -106.33296875 60.98484375 -105.6875 60.1640625 C-103.9609375 58.203125 -103.9609375 58.203125 -101.9609375 57.203125 C-101.6309375 56.213125 -101.3009375 55.223125 -100.9609375 54.203125 C-101.6209375 54.203125 -102.2809375 54.203125 -102.9609375 54.203125 C-102.9609375 53.543125 -102.9609375 52.883125 -102.9609375 52.203125 C-103.5796875 52.5125 -104.1984375 52.821875 -104.8359375 53.140625 C-106.2109375 53.828125 -107.5859375 54.515625 -108.9609375 55.203125 C-100.90611581 35.09018701 -70.35327398 20.17193099 -51.8359375 11.890625 C-35.46095776 5.19692658 -17.77370025 0.10821829 0 0 Z M-101.9609375 49.203125 C-101.6309375 49.863125 -101.3009375 50.523125 -100.9609375 51.203125 C-100.6309375 50.543125 -100.3009375 49.883125 -99.9609375 49.203125 C-100.6209375 49.203125 -101.2809375 49.203125 -101.9609375 49.203125 Z " fill="#2D2830" transform="translate(146.9609375,-0.203125)"/>
<path d="M0 0 C4.49652778 -0.36458333 4.49652778 -0.36458333 6.8125 1.3125 C8 3 8 3 8 6 C8.87785156 6.24878906 9.75570312 6.49757813 10.66015625 6.75390625 C14.16432545 8.06130973 16.49839787 9.64679195 19.4375 11.9375 C23.57774228 15.05109684 27.21139693 17.12211644 32 19 C34.15583274 20.21205708 36.01693048 21.50060597 38 23 C38 23.66 38 24.32 38 25 C38.639375 25.0825 39.27875 25.165 39.9375 25.25 C42.5641091 25.89325121 44.41665561 26.64211625 46.8125 27.8125 C52.89993319 30.6042533 59.34975386 31.96653538 65.83886719 33.48681641 C69.46488617 34.34785255 73.07495256 35.2718909 76.6875 36.1875 C86.04153255 38.55775259 94.68810892 39.27995497 104.3125 39.3125 C105.04731598 39.31511841 105.78213196 39.31773682 106.53921509 39.32043457 C123.92686027 39.32705204 140.67048827 37.08013515 157.29296875 31.83203125 C159.85076953 31.04586737 162.36883084 30.47620795 165 30 C164.67 32.31 164.34 34.62 164 37 C148.59402058 42.54433478 132.51825687 47.10278854 116.0390625 47.203125 C114.9158107 47.21167511 114.9158107 47.21167511 113.76986694 47.22039795 C112.18822619 47.22979745 110.60656629 47.2363617 109.02490234 47.24023438 C106.66596736 47.2498333 104.30794597 47.28085914 101.94921875 47.3125 C67.66971091 47.55052254 31.05513799 34.47037889 5.3671875 11.40234375 C1.75957421 7.70196326 0 5.18778792 0 0 Z " fill="#221E24" transform="translate(51,267)"/>
<path d="M0 0 C0.33 0 0.66 0 1 0 C1 2.64 1 5.28 1 8 C-0.32 8.66 -1.64 9.32 -3 10 C-3 12.64 -3 15.28 -3 18 C-1.35 18 0.3 18 2 18 C2.33 16.68 2.66 15.36 3 14 C3.33 14.66 3.66 15.32 4 16 C2.96161144 18.65973211 1.85871915 21.18152436 0.625 23.75 C0.26212891 24.51062744 -0.10074219 25.27125488 -0.47460938 26.05493164 C-7.99752588 41.4592284 -18.37026177 54.47726401 -30 67 C-30.5775 67.64324219 -31.155 68.28648437 -31.75 68.94921875 C-45.29875692 83.37501574 -63.56983784 94.8957032 -82 102 C-82.66 102 -83.32 102 -84 102 C-84 100.35 -84 98.7 -84 97 C-86.23902171 97.5277694 -88.41651613 98.13281128 -90.609375 98.83203125 C-107.83235686 104.20885768 -125.14048706 106.37749484 -143.125 106.4375 C-144.15737289 106.44662415 -144.15737289 106.44662415 -145.21060181 106.45593262 C-154.85333936 106.51183171 -163.65441815 105.39151417 -173 103 C-173 102.67 -173 102.34 -173 102 C-171.06257659 101.97296619 -169.12504521 101.95358875 -167.1875 101.9375 C-166.10855469 101.92589844 -165.02960938 101.91429687 -163.91796875 101.90234375 C-161 102 -161 102 -158 103 C-153.35898489 103.24276079 -148.70924381 103.19441365 -144.0625 103.1875 C-143.05215195 103.18709213 -143.05215195 103.18709213 -142.02139282 103.18667603 C-133.55291124 103.17092856 -125.12294233 103.00356695 -116.6875 102.1875 C-115.92638916 102.11748779 -115.16527832 102.04747559 -114.38110352 101.9753418 C-108.96194549 101.36714939 -104.11310066 99.85138126 -99 98 C-97.52671942 97.49800647 -96.05276575 96.99798377 -94.578125 96.5 C-93.13513809 96.00080453 -91.69242841 95.50080697 -90.25 95 C-89.52167969 94.7525 -88.79335937 94.505 -88.04296875 94.25 C-84.03021472 92.85172636 -80.65184798 91.19617201 -77 89 C-74.31350447 88.38580992 -71.75958041 88.23386275 -69 88 C-69 87.34 -69 86.68 -69 86 C-67.47675109 84.98043059 -65.90257299 84.03685356 -64.3125 83.125 C-57.56529437 78.96886045 -52.12848884 73.80507356 -46.43359375 68.35693359 C-44.6030239 66.62425185 -42.71876355 64.96126424 -40.8125 63.3125 C-40.20148438 62.77882813 -39.59046875 62.24515625 -38.9609375 61.6953125 C-37.49638334 60.42914417 -36.02054122 59.17601087 -34.5390625 57.9296875 C-24.93275421 49.65037675 -19.3532008 40.41231819 -14 29 C-13.34 29 -12.68 29 -12 29 C-11.62875 27.7934375 -11.62875 27.7934375 -11.25 26.5625 C-9.99510966 22.98606254 -8.50288028 19.60744592 -6.9375 16.16015625 C-5.90805777 13.88053254 -5.90805777 13.88053254 -5 10.9375 C-3.69263564 7.0971172 -1.87668095 3.58938006 0 0 Z " fill="#2A262E" transform="translate(299,201)"/>
<path d="M0 0 C0.66 0 1.32 0 2 0 C6 6.75 6 6.75 6 9 C6.66 9 7.32 9 8 9 C8.64919506 11.85343877 9.29444179 14.70767755 9.9375 17.5625 C10.11990234 18.36236328 10.30230469 19.16222656 10.49023438 19.98632812 C10.66748047 20.77587891 10.84472656 21.56542969 11.02734375 22.37890625 C11.27085571 23.45507202 11.27085571 23.45507202 11.51928711 24.55297852 C12.66080647 30.36377005 13.16711465 36.04662122 13.203125 41.9609375 C13.20882507 42.70977203 13.21452515 43.45860657 13.22039795 44.23013306 C13.22979745 45.81177381 13.2363617 47.39343371 13.24023438 48.97509766 C13.2498333 51.33403264 13.28085914 53.69205403 13.3125 56.05078125 C13.42128372 71.67269652 10.67291891 86.10273452 6 101 C5.71898437 101.93457031 5.43796875 102.86914062 5.1484375 103.83203125 C4.50035448 105.91047933 3.76065607 107.96005873 3 110 C2.01 110.495 2.01 110.495 1 111 C0.67 111.99 0.34 112.98 0 114 C-2.97 114.495 -2.97 114.495 -6 115 C-5.91291331 113.54054712 -5.80473093 112.08234132 -5.6875 110.625 C-5.62949219 109.81289062 -5.57148438 109.00078125 -5.51171875 108.1640625 C-5 106 -5 106 -2 104 C-1.40415783 102.08116255 -1.40415783 102.08116255 -1.26953125 99.8671875 C-1.18896484 99.06152344 -1.10839844 98.25585938 -1.02539062 97.42578125 C-0.95513672 96.58402344 -0.88488281 95.74226563 -0.8125 94.875 C-0.73064453 94.02550781 -0.64878906 93.17601562 -0.56445312 92.30078125 C-0.36397541 90.2016616 -0.18038389 88.10094176 0 86 C0.66 86 1.32 86 2 86 C2.06058594 85.33355469 2.12117188 84.66710937 2.18359375 83.98046875 C2.26738281 83.05878906 2.35117187 82.13710937 2.4375 81.1875 C2.52773438 80.1665625 2.61796875 79.145625 2.7109375 78.09375 C2.88243057 76.25831061 3.06919187 74.42402444 3.2890625 72.59375 C5.40011965 54.01644707 5.36682731 33.17529845 0.703125 15.0234375 C-0.36732443 10.42050495 -0.96389181 5.73017295 -1 1 C-0.67 0.67 -0.34 0.34 0 0 Z " fill="#161517" transform="translate(301,105)"/>
<path d="M0 0 C0 0.66 0 1.32 0 2 C-0.66 2 -1.32 2 -2 2 C-2.33 2.99 -2.66 3.98 -3 5 C-3.66 5 -4.32 5 -5 5 C-4.505 7.97 -4.505 7.97 -4 11 C-5.50626953 11.98226563 -5.50626953 11.98226563 -7.04296875 12.984375 C-19.49692553 21.24210614 -29.9814153 30.66329912 -40.29296875 41.453125 C-42 43 -42 43 -44 43 C-44.39832031 43.87398437 -44.39832031 43.87398437 -44.8046875 44.765625 C-46.03302996 47.06174228 -47.40314939 48.80356018 -49.125 50.75 C-49.93324219 51.67039062 -49.93324219 51.67039062 -50.7578125 52.609375 C-51.37269531 53.29773438 -51.37269531 53.29773438 -52 54 C-52 50.23660802 -50.93898713 49.27456755 -48.625 46.375 C-47.99851562 45.57835937 -47.37203125 44.78171875 -46.7265625 43.9609375 C-45 42 -45 42 -43 41 C-42.67 40.01 -42.34 39.02 -42 38 C-42.66 38 -43.32 38 -44 38 C-44 37.34 -44 36.68 -44 36 C-44.61875 36.309375 -45.2375 36.61875 -45.875 36.9375 C-47.25 37.625 -48.625 38.3125 -50 39 C-44.8052504 26.02867915 -14.46945751 0 0 0 Z M-43 33 C-42.67 33.66 -42.34 34.32 -42 35 C-41.67 34.34 -41.34 33.68 -41 33 C-41.66 33 -42.32 33 -43 33 Z " fill="#39343E" transform="translate(88,16)"/>
<path d="M0 0 C-0.66 0.66 -1.32 1.32 -2 2 C-2.6425235 4.06874034 -2.6425235 4.06874034 -3 6 C-2.22914063 5.55527344 -1.45828125 5.11054688 -0.6640625 4.65234375 C0.33882813 4.08644531 1.34171875 3.52054687 2.375 2.9375 C3.37273437 2.36902344 4.37046875 1.80054688 5.3984375 1.21484375 C6.25695312 0.81394531 7.11546875 0.41304688 8 0 C8.99 0.495 8.99 0.495 10 1 C-10.47572816 13 -10.47572816 13 -15 13 C-15 11.35 -15 9.7 -15 8 C-17.23902171 8.5277694 -19.41651613 9.13281128 -21.609375 9.83203125 C-38.83235686 15.20885768 -56.14048706 17.37749484 -74.125 17.4375 C-74.8132486 17.44358276 -75.50149719 17.44966553 -76.21060181 17.45593262 C-85.85333936 17.51183171 -94.65441815 16.39151417 -104 14 C-104 13.67 -104 13.34 -104 13 C-102.06257659 12.97296619 -100.12504521 12.95358875 -98.1875 12.9375 C-97.10855469 12.92589844 -96.02960938 12.91429687 -94.91796875 12.90234375 C-92 13 -92 13 -89 14 C-84.35898489 14.24276079 -79.70924381 14.19441365 -75.0625 14.1875 C-74.05215195 14.18709213 -74.05215195 14.18709213 -73.02139282 14.18667603 C-64.55291124 14.17092856 -56.12294233 14.00356695 -47.6875 13.1875 C-46.92638916 13.11748779 -46.16527832 13.04747559 -45.38110352 12.9753418 C-39.96194549 12.36714939 -35.11310066 10.85138126 -30 9 C-28.52671942 8.49800647 -27.05276575 7.99798377 -25.578125 7.5 C-24.13513809 7.00080453 -22.69242841 6.50080697 -21.25 6 C-20.52167969 5.7525 -19.79335937 5.505 -19.04296875 5.25 C-15.04824942 3.85801069 -11.5791463 2.30229743 -8 0 C-4.95338928 -1.10785845 -3.07714019 -0.98908078 0 0 Z " fill="#39353E" transform="translate(230,290)"/>
<path d="M0 0 C8.60437828 0.12619755 15.1091164 0.40581239 22.65234375 4.80078125 C25.92555298 6.47278663 29.1555247 6.96213848 32.7734375 7.4453125 C35.44430415 8.1106863 36.98122525 9.14715194 39 11 C39 11.66 39 12.32 39 13 C39.763125 12.9175 40.52625 12.835 41.3125 12.75 C44 13 44 13 45.8125 15 C46.4003125 15.99 46.4003125 15.99 47 17 C44 19 44 19 42.1875 18.8125 C39.34008213 17.75488765 36.68982288 16.40604378 34 15 C34 14.34 34 13.68 34 13 C30.37 13 26.74 13 23 13 C23 12.34 23 11.68 23 11 C22.29617187 10.87367187 21.59234375 10.74734375 20.8671875 10.6171875 C13.32958561 8.99465194 6.00837161 6.18562346 -1 3 C-0.67 2.01 -0.34 1.02 0 0 Z " fill="#181719" transform="translate(184,5)"/>
<path d="M0 0 C4.25033735 2.12516868 6.75488065 4.83328081 9.66796875 8.4765625 C10.94364001 10.12972374 10.94364001 10.12972374 13 11 C13 11.66 13 12.32 13 13 C13.66 13 14.32 13 15 13 C15 13.66 15 14.32 15 15 C15.66 15 16.32 15 17 15 C17.66 16.65 18.32 18.3 19 20 C17.68 20 16.36 20 15 20 C16.90884692 24.54170996 16.90884692 24.54170996 19 29 C14.79737311 27.35151197 11.92957128 24.27125819 8.8125 21.125 C8.24313721 20.55434814 7.67377441 19.98369629 7.0871582 19.39575195 C1.80546956 13.99519003 -2.68225402 8.19211632 -7 2 C-6.34 1.67 -5.68 1.34 -5 1 C-4.34 1.33 -3.68 1.66 -3 2 C-3 2.66 -3 3.32 -3 4 C-1.68 4.33 -0.36 4.66 1 5 C0.67 3.35 0.34 1.7 0 0 Z " fill="#262328" transform="translate(36,247)"/>
<path d="M0 0 C1.99163115 3.47457729 2.75414191 6.90614126 3.5625 10.8125 C3.81128906 11.99457031 4.06007813 13.17664063 4.31640625 14.39453125 C5.49453197 20.60830293 6.16462361 26.63749505 6.203125 32.9609375 C6.20882507 33.70977203 6.21452515 34.45860657 6.22039795 35.23013306 C6.22979745 36.81177381 6.2363617 38.39343371 6.24023438 39.97509766 C6.2498333 42.33403264 6.28085914 44.69205403 6.3125 47.05078125 C6.44397825 65.93175055 2.13669564 83.20358263 -4 101 C-5.29434896 97.04698832 -4.3012117 94.76268598 -2.89453125 90.90234375 C-1.5665008 86.59349387 -0.84119551 82.20169511 -0.09082031 77.76074219 C0.41806719 74.82130419 0.96712692 72.0865944 2.02783203 69.29248047 C3.19516993 65.33901012 3.30566211 61.63422712 3.30078125 57.55078125 C3.30506638 56.73868698 3.3093515 55.92659271 3.31376648 55.08988953 C3.31949454 53.3694247 3.32002129 51.64893566 3.31567383 49.9284668 C3.31256402 47.36526893 3.33581404 44.80328547 3.36132812 42.24023438 C3.39587453 32.78147448 2.78469834 23.73559565 1.05134583 14.4256134 C0.14800428 9.52670053 -0.13353825 4.98531042 0 0 Z " fill="#6F677A" transform="translate(308,114)"/>
<path d="M0 0 C0.33 0 0.66 0 1 0 C1 2.64 1 5.28 1 8 C0.34 8 -0.32 8 -1 8 C-1 28.79 -1 49.58 -1 71 C-3.86004813 68.13995187 -3.73487028 65.04870166 -4.125 61.1875 C-4.20919189 60.37812988 -4.29338379 59.56875977 -4.38012695 58.73486328 C-5.11699195 50.6226292 -5.18249344 42.51617446 -5.1875 34.375 C-5.18830566 33.0758667 -5.18911133 31.7767334 -5.18994141 30.43823242 C-5.13415787 21.13415787 -5.13415787 21.13415787 -4 20 C-3.45562288 16.54617875 -3.03357777 13.0823374 -2.59765625 9.61328125 C-2.03747675 6.2265751 -1.1806967 3.21603996 0 0 Z " fill="#A599B0" transform="translate(12,119)"/>
<path d="M0 0 C5.87742226 8.81613339 5.76016129 18.78686832 6 29 C6.02191406 29.88010742 6.04382813 30.76021484 6.06640625 31.66699219 C6.36567954 45.77772759 5.3547484 59.08364909 3 73 C2.67 73 2.34 73 2 73 C2.03029297 72.37770508 2.06058594 71.75541016 2.09179688 71.11425781 C4.26399296 37.3489006 4.26399296 37.3489006 0 4 C0 2.68 0 1.36 0 0 Z " fill="#AFA4B9" transform="translate(300,118)"/>
<path d="M0 0 C4.88733881 0.61091735 8.72525712 2.70153462 13 5 C14.12776855 5.60448975 14.12776855 5.60448975 15.27832031 6.22119141 C31.91840023 15.30434331 45.89990532 27.42735682 59 41 C58.505 41.99 58.505 41.99 58 43 C57.11441406 42.06800781 56.22882813 41.13601562 55.31640625 40.17578125 C35.17968736 19.21818236 35.17968736 19.21818236 9.5 6.8125 C5.67763408 5.92516505 4.42924195 4.98983624 2 2 C1.34 1.34 0.68 0.68 0 0 Z " fill="#847C8D" transform="translate(217,12)"/>
<path d="M0 0 C15.18 0 30.36 0 46 0 C49.375 6.75 49.375 6.75 49.6875 11.375 C49.78611328 12.68597656 49.78611328 12.68597656 49.88671875 14.0234375 C49.94279297 15.00183594 49.94279297 15.00183594 50 16 C47.68994131 13.68994131 47.27825897 12.16916343 46.375 9.0625 C45.98441406 7.74958984 45.98441406 7.74958984 45.5859375 6.41015625 C45 4 45 4 45 1 C31.14 1 17.28 1 3 1 C3.99 5.29 4.98 9.58 6 14 C5.67 15.32 5.34 16.64 5 18 C4.15621025 15.94175571 3.32536378 13.87820214 2.5 11.8125 C2.0359375 10.66394531 1.571875 9.51539062 1.09375 8.33203125 C0 5 0 5 0 0 Z " fill="#494251" transform="translate(73,75)"/>
<path d="M0 0 C1.93742341 -0.02703381 3.87495479 -0.04641125 5.8125 -0.0625 C6.89144531 -0.07410156 7.97039062 -0.08570313 9.08203125 -0.09765625 C12 0 12 0 15 1 C17.87694671 1.0853013 20.72900182 1.11585645 23.60546875 1.09765625 C24.44467361 1.0962413 25.28387848 1.09482635 26.14851379 1.09336853 C28.82821216 1.08777215 31.5078269 1.07522035 34.1875 1.0625 C36.00455608 1.05748453 37.82161348 1.05292171 39.63867188 1.04882812 C44.09248013 1.03780391 48.54622589 1.02054178 53 1 C53 1.33 53 1.66 53 2 C51.02 2 49.04 2 47 2 C47 2.66 47 3.32 47 4 C42.55667228 4.07535649 38.11370396 4.12915723 33.66992188 4.16479492 C32.16497299 4.17968431 30.66006589 4.2000027 29.15527344 4.22631836 C18.96949734 4.39970774 9.910209 3.62607709 0 1 C0 0.67 0 0.34 0 0 Z " fill="#948A9F" transform="translate(126,303)"/>
<path d="M0 0 C0.66 0.33 1.32 0.66 2 1 C2.02502961 5.62239198 2.04301321 10.24474308 2.05493164 14.8671875 C2.059909 16.4342518 2.06669329 18.00131158 2.07543945 19.56835938 C2.21058092 44.43438893 2.21058092 44.43438893 -0.9375 54.1875 C-1.27652344 55.27417969 -1.61554688 56.36085937 -1.96484375 57.48046875 C-3 60 -3 60 -5 61 C-4.67 58.03 -4.34 55.06 -4 52 C-3.34 52 -2.68 52 -2 52 C-1.93941406 51.33355469 -1.87882812 50.66710937 -1.81640625 49.98046875 C-1 41 -1 41 -0.74389648 38.71020508 C0.11164457 30.57459417 0.1143297 22.48496744 0.0625 14.3125 C0.05747028 12.91731933 0.05291 11.52213689 0.04882812 10.12695312 C0.03714751 6.75125563 0.02076833 3.37565174 0 0 Z " fill="#3F3944" transform="translate(305,139)"/>
<path d="M0 0 C1.0143635 3.16538964 0.95408471 5.27924121 0.1875 8.5 C0.01605469 9.2528125 -0.15539062 10.005625 -0.33203125 10.78125 C-1.01259776 13.04184518 -1.80055479 14.96673972 -3 17 C-5.46161017 18.23080509 -7.06496993 18.12043977 -9.81689453 18.11352539 C-10.81778107 18.11344986 -11.8186676 18.11337433 -12.84988403 18.11329651 C-13.93325043 18.10813522 -15.01661682 18.10297394 -16.1328125 18.09765625 C-17.23978485 18.0962413 -18.3467572 18.09482635 -19.48727417 18.09336853 C-23.03320993 18.08775772 -26.57908323 18.07520337 -30.125 18.0625 C-32.52473867 18.05748639 -34.92447833 18.05292325 -37.32421875 18.04882812 C-43.21616725 18.03778478 -49.10807916 18.0210361 -55 18 C-54.67 17.34 -54.34 16.68 -54 16 C-38.16 16 -22.32 16 -6 16 C-5.01 13.36 -4.02 10.72 -3 8 C-2 5.33333333 -1 2.66666667 0 0 Z " fill="#8D8497" transform="translate(187,223)"/>
<path d="M0 0 C-12.35093798 8.1670159 -29.30237607 11.56529323 -44 11 C-44 10.67 -44 10.34 -44 10 C-43.410979 9.89453857 -42.82195801 9.78907715 -42.21508789 9.68041992 C-39.49627729 9.18960124 -36.77943169 8.68861081 -34.0625 8.1875 C-33.13630859 8.02185547 -32.21011719 7.85621094 -31.25585938 7.68554688 C-22.42369015 6.0430733 -14.45894812 3.31508805 -6.26171875 -0.328125 C-3.7258491 -1.08144034 -2.45895378 -0.87779586 0 0 Z " fill="#3F3945" transform="translate(217,295)"/>
<path d="M0 0 C1.47118907 3.82509158 0.45442741 6.28312995 -1 10 C-1.33 10.66 -1.66 11.32 -2 12 C-2.66 12 -3.32 12 -4 12 C-4.13277344 12.75925781 -4.26554688 13.51851562 -4.40234375 14.30078125 C-4.66724609 15.79158203 -4.66724609 15.79158203 -4.9375 17.3125 C-5.11152344 18.29863281 -5.28554687 19.28476563 -5.46484375 20.30078125 C-6 23 -6 23 -7 26 C-7.66 26 -8.32 26 -9 26 C-9.16435547 27.12148437 -9.16435547 27.12148437 -9.33203125 28.265625 C-9.49058594 29.25046875 -9.64914063 30.2353125 -9.8125 31.25 C-9.96332031 32.22453125 -10.11414063 33.1990625 -10.26953125 34.203125 C-11.03218264 37.12322338 -12.03774101 38.74205815 -14 41 C-13.21803175 36.79994374 -12.16852466 32.68645069 -11.0625 28.5625 C-10.89298828 27.91990234 -10.72347656 27.27730469 -10.54882812 26.61523438 C-9.50103643 22.6909955 -8.30770467 18.84453948 -7 15 C-6.65023242 13.67088318 -6.30903983 12.33917261 -6 11 C-5.34 11 -4.68 11 -4 11 C-3.8453125 9.948125 -3.8453125 9.948125 -3.6875 8.875 C-2.90640997 5.60862353 -1.57941257 2.9528148 0 0 Z " fill="#B8ADC6" transform="translate(178,128)"/>
<path d="M0 0 C0.495 0.99 0.495 0.99 1 2 C-6.58940016 16.81862539 -19.19532707 29.48481496 -31 41 C-31.66 40.67 -32.32 40.34 -33 40 C-32.59273682 39.60844727 -32.18547363 39.21689453 -31.76586914 38.81347656 C-23.3513225 30.6802457 -15.65937998 22.65672802 -9 13 C-8.15287956 11.78868761 -7.30520083 10.57776551 -6.45703125 9.3671875 C-4.28603246 6.25733351 -2.13749128 3.13296594 0 0 Z " fill="#756D7E" transform="translate(292,235)"/>
<path d="M0 0 C2 1 2 1 2.96484375 3.328125 C3.28582031 4.29234375 3.60679688 5.2565625 3.9375 6.25 C5.2523738 10.18929803 6.85380869 13.45358701 9 17 C9 17.66 9 18.32 9 19 C9.99 19 10.98 19 12 19 C12.33 20.98 12.66 22.96 13 25 C13.66 25 14.32 25 15 25 C15.99 27.97 16.98 30.94 18 34 C14.73268033 30.96606031 12.4656192 27.69842881 10 24 C9.29875 23.360625 8.5975 22.72125 7.875 22.0625 C5.38071509 19.3187866 4.93507941 16.53994347 4 13 C3.34 12.67 2.68 12.34 2 12 C1.3671875 9.27734375 1.3671875 9.27734375 0.875 5.9375 C0.70742188 4.83277344 0.53984375 3.72804687 0.3671875 2.58984375 C0.24601562 1.73519531 0.12484375 0.88054687 0 0 Z " fill="#595366" transform="translate(16,208)"/>
<path d="M0 0 C1.3951758 0.01005941 2.7903587 0.01917998 4.18554688 0.02734375 C7.5613837 0.05070594 10.93684618 0.08346332 14.3125 0.125 C14.3125 0.455 14.3125 0.785 14.3125 1.125 C13.58772461 1.14481934 12.86294922 1.16463867 12.11621094 1.18505859 C8.76466966 1.28156336 5.41364824 1.39072343 2.0625 1.5 C0.92296875 1.5309375 -0.2165625 1.561875 -1.390625 1.59375 C-8.04941345 1.82075415 -14.41805325 2.42973345 -20.95996094 3.70947266 C-23.90593575 4.15827763 -26.71204103 4.19230075 -29.6875 4.125 C-29.6875 4.785 -29.6875 5.445 -29.6875 6.125 C-32.3275 6.455 -34.9675 6.785 -37.6875 7.125 C-37.6875 6.465 -37.6875 5.805 -37.6875 5.125 C-36.08521791 4.66012125 -34.48051541 4.20358617 -32.875 3.75 C-31.98167969 3.49476562 -31.08835937 3.23953125 -30.16796875 2.9765625 C-19.99873294 0.48846664 -10.46865907 -0.13278424 0 0 Z " fill="#8A8197" transform="translate(151.6875,7.875)"/>
<path d="M0 0 C1.39085815 0.0012085 1.39085815 0.0012085 2.80981445 0.00244141 C21.92197268 0.17197268 21.92197268 0.17197268 25.9375 4.1875 C12.0775 3.5275 -1.7825 2.8675 -16.0625 2.1875 C-16.0625 1.8575 -16.0625 1.5275 -16.0625 1.1875 C-10.68739743 0.08060079 -5.4628998 -0.00489288 0 0 Z " fill="#433E4B" transform="translate(156.0625,5.8125)"/>
<path d="M0 0 C0.33 0 0.66 0 1 0 C1 2.64 1 5.28 1 8 C0.360625 8.20625 -0.27875 8.4125 -0.9375 8.625 C-1.9584375 9.305625 -1.9584375 9.305625 -3 10 C-3.144375 10.8765625 -3.28875 11.753125 -3.4375 12.65625 C-4.07900306 16.46962929 -5.39315592 19.39424001 -7.0625 22.875 C-7.61035156 24.02742188 -8.15820312 25.17984375 -8.72265625 26.3671875 C-9.14417969 27.23601562 -9.56570313 28.10484375 -10 29 C-10.66 29 -11.32 29 -12 29 C-10.62949074 24.54584492 -8.85969906 20.39323434 -6.9375 16.16015625 C-5.90805777 13.88053254 -5.90805777 13.88053254 -5 10.9375 C-3.69263564 7.0971172 -1.87668095 3.58938006 0 0 Z " fill="#756C80" transform="translate(299,201)"/>
<path d="M0 0 C0.8197996 2.35361821 1.1148421 3.63151889 0.36328125 6.04296875 C0.01652344 6.75066406 -0.33023438 7.45835937 -0.6875 8.1875 C-1.06261719 8.98027344 -1.43773437 9.77304688 -1.82421875 10.58984375 C-2.21222656 11.38519531 -2.60023438 12.18054688 -3 13 C-6.41613952 20.13331816 -8.79373218 27.40715278 -11 35 C-13.51510474 27.84554664 -9.05251099 16.72830956 -6 10 C-5.34 9.67 -4.68 9.34 -4 9 C-2.87293294 6.88984046 -2.87293294 6.88984046 -1.875 4.4375 C-1.52179688 3.61121094 -1.16859375 2.78492188 -0.8046875 1.93359375 C-0.53914062 1.29550781 -0.27359375 0.65742188 0 0 Z " fill="#655D6F" transform="translate(200,188)"/>
<path d="M0 0 C-3.42346555 3.14958831 -6.44262737 3.56179109 -11 4 C-11 4.66 -11 5.32 -11 6 C-12.11375 6.28875 -13.2275 6.5775 -14.375 6.875 C-18.00291092 7.69241329 -18.00291092 7.69241329 -20 10 C-23.125 10.125 -23.125 10.125 -26 10 C-24.31025688 6.62051375 -20.46968328 5.84808382 -17.125 4.4375 C-16.39152344 4.12103516 -15.65804687 3.80457031 -14.90234375 3.47851562 C-9.72921889 1.25944294 -5.73098292 -0.12735518 0 0 Z " fill="#AA9EB5" transform="translate(114,15)"/>
<path d="M0 0 C1.33897583 0.95043374 2.67105427 1.91059147 4 2.875 C5.11375 3.67550781 5.11375 3.67550781 6.25 4.4921875 C6.8275 4.98976563 7.405 5.48734375 8 6 C8 6.66 8 7.32 8 8 C8.66 8 9.32 8 10 8 C10 8.66 10 9.32 10 10 C10.66 10 11.32 10 12 10 C12.66 11.65 13.32 13.3 14 15 C12.68 15 11.36 15 10 15 C10 13.68 10 12.36 10 11 C9.34 11 8.68 11 8 11 C8 10.34 8 9.68 8 9 C7.34 9 6.68 9 6 9 C4.4921875 7.5390625 4.4921875 7.5390625 2.875 5.625 C2.06675781 4.68527344 2.06675781 4.68527344 1.2421875 3.7265625 C0 2 0 2 0 0 Z M9 15 C9.268125 15.556875 9.53625 16.11375 9.8125 16.6875 C11.10122647 19.19712523 12.52926478 21.59334236 14 24 C9.7257442 22.4169423 7.73468206 19.49431596 5 16 C6.32 15.67 7.64 15.34 9 15 Z " fill="#56505E" transform="translate(41,252)"/>
<path d="M0 0 C12.22746765 0.56347777 23.65732488 4.64811648 35 9 C35 9.33 35 9.66 35 10 C29.38213141 10.28565433 26.75512968 10.13142686 22 7 C14.95097085 4.09395204 7.4228931 2.61766295 0 1 C0 0.67 0 0.34 0 0 Z " fill="#746D7C" transform="translate(182,2)"/>
<path d="M0 0 C1.33142796 2.66285592 0.71741358 3.64592557 -0.109375 6.47265625 C-0.36976563 7.37306641 -0.63015625 8.27347656 -0.8984375 9.20117188 C-1.31996094 10.6175293 -1.31996094 10.6175293 -1.75 12.0625 C-2.01554688 12.97966797 -2.28109375 13.89683594 -2.5546875 14.84179688 C-7.22552806 30.83829209 -7.22552806 30.83829209 -10 35 C-9.63468173 27.93718016 -7.75486457 22.13252968 -5.2734375 15.52734375 C-3.78590171 11.40696086 -2.64418604 7.25736882 -1.578125 3.01171875 C-1 1 -1 1 0 0 Z " fill="#7B7284" transform="translate(193,84)"/>
<path d="M0 0 C2.36525555 1.05122469 4.18452491 2.15289207 6.1875 3.8125 C8.64581341 5.72452154 10.87687888 7.02112639 13.625 8.4375 C17.30615138 10.40976414 19.30582516 12.04692537 21 16 C16.62506962 14.63283426 13.54982906 12.22649666 9.99609375 9.4453125 C7.87066383 7.80902931 7.87066383 7.80902931 4.625 6.4375 C2 5 2 5 0.625 2.3125 C0.41875 1.549375 0.2125 0.78625 0 0 Z " fill="#958AA0" transform="translate(57,268)"/>
<path d="M0 0 C0.33 0 0.66 0 1 0 C1.85735816 10.71697702 -2.55299291 21.00367945 -6 31 C-7.29263096 27.05223519 -6.30619184 24.77314922 -4.8984375 20.91796875 C-3.53504393 16.48990355 -2.79091778 11.96958322 -2.00292969 7.40917969 C-1.08984375 2.1796875 -1.08984375 2.1796875 0 0 Z " fill="#696474" transform="translate(310,184)"/>
<path d="M0 0 C0.33 0.66 0.66 1.32 1 2 C1.99 2.33 2.98 2.66 4 3 C4.87890625 5.44140625 4.87890625 5.44140625 5.5625 8.5625 C5.80742188 9.64144531 6.05234375 10.72039062 6.3046875 11.83203125 C6.53414063 12.87746094 6.76359375 13.92289063 7 15 C7.38960564 16.58487726 7.7843222 18.1685209 8.1875 19.75 C8.455625 20.8225 8.72375 21.895 9 23 C6.42607943 21.71303972 6.30671162 20.74870759 5.2734375 18.10546875 C4.9640625 17.31462891 4.6546875 16.52378906 4.3359375 15.70898438 C4.01882812 14.87689453 3.70171875 14.04480469 3.375 13.1875 C3.05015625 12.36701172 2.7253125 11.54652344 2.390625 10.70117188 C0.8843875 6.79951046 0 4.26544238 0 0 Z " fill="#675F71" transform="translate(109,175)"/>
<path d="M0 0 C1.65 0 3.3 0 5 0 C5 0.66 5 1.32 5 2 C5.66 2 6.32 2 7 2 C6.67 3.65 6.34 5.3 6 7 C4.33388095 7.042721 2.66617115 7.04063832 1 7 C0 6 0 6 -0.0625 2.9375 C-0.041875 1.968125 -0.02125 0.99875 0 0 Z " fill="#1A171A" transform="translate(44,261)"/>
<path d="M0 0 C0.99 0.495 0.99 0.495 2 1 C2 1.66 2 2.32 2 3 C2.66 3 3.32 3 4 3 C4 4.65 4 6.3 4 8 C5.32 7.67 6.64 7.34 8 7 C8 8.98 8 10.96 8 13 C6.68 13.33 5.36 13.66 4 14 C3.32968281 12.0429132 2.66385317 10.08428887 2 8.125 C1.62875 7.03445312 1.2575 5.94390625 0.875 4.8203125 C0 2 0 2 0 0 Z " fill="#ABA3B7" transform="translate(152,175)"/>
<path d="M0 0 C1 2 1 2 0.07421875 5.30078125 C-0.3803972 6.64063179 -0.84299858 7.97779271 -1.3125 9.3125 C-1.6518457 10.30926758 -1.6518457 10.30926758 -1.99804688 11.32617188 C-3.2337264 14.92637938 -4.55009441 18.48074558 -6 22 C-6.33 22 -6.66 22 -7 22 C-7 20.02 -7 18.04 -7 16 C-6.34 16 -5.68 16 -5 16 C-4.89042969 15.09636719 -4.78085938 14.19273437 -4.66796875 13.26171875 C-4.50941406 12.08222656 -4.35085937 10.90273437 -4.1875 9.6875 C-4.03667969 8.51574219 -3.88585937 7.34398437 -3.73046875 6.13671875 C-3.00135005 3.00579726 -2.50828536 1.90354807 0 0 Z " fill="#36303B" transform="translate(188,217)"/>
<path d="M0 0 C3.49682153 2.66757528 4.13538889 6.23926066 5.125 10.3125 C5.29386719 10.96412109 5.46273437 11.61574219 5.63671875 12.28710938 C6.62324987 16.16720618 7.39876218 20.04287355 8 24 C5.43800497 20.96699753 4.3702998 18.40563516 3.4375 14.5625 C2.73925725 11.72613538 2.04130793 9.09845798 0.91015625 6.40234375 C0 4 0 4 0 0 Z " fill="#ACA0B8" transform="translate(118,199)"/>
<path d="M0 0 C0.66 0 1.32 0 2 0 C1.03333333 15.96666667 1.03333333 15.96666667 -4 21 C-4.08159574 16.83861737 -3.98248524 13.0527516 -3 9 C-2.01 9 -1.02 9 0 9 C0 6.03 0 3.06 0 0 Z " fill="#4E4754" transform="translate(14,104)"/>
<path d="M0 0 C3.16560553 2.11040369 3.42071042 2.39027508 4.421875 5.7734375 C4.64230469 6.5159375 4.86273438 7.2584375 5.08984375 8.0234375 C5.30769531 8.79945313 5.52554688 9.57546875 5.75 10.375 C5.98332031 11.14328125 6.21664062 11.9115625 6.45703125 12.703125 C7.5812643 16.59418311 8.25634247 19.04881399 7 23 C6.73445312 22.15695313 6.46890625 21.31390625 6.1953125 20.4453125 C5.84210938 19.34960938 5.48890625 18.25390625 5.125 17.125 C4.60292969 15.48917969 4.60292969 15.48917969 4.0703125 13.8203125 C3.18824769 10.91477277 3.18824769 10.91477277 1 9 C0.5859375 6.8359375 0.5859375 6.8359375 0.375 4.375 C0.30023438 3.55773437 0.22546875 2.74046875 0.1484375 1.8984375 C0.09945312 1.27195313 0.05046875 0.64546875 0 0 Z " fill="#877E92" transform="translate(144,152)"/>
<path d="M0 0 C1.64596545 3.29193091 -0.1701816 6.4210571 -1.25 9.75 C-1.57677734 10.80574219 -1.57677734 10.80574219 -1.91015625 11.8828125 C-3.26320648 16.13977755 -4.88656161 20.04662702 -7 24 C-7.33 24 -7.66 24 -8 24 C-8 22.02 -8 20.04 -8 18 C-7.01 17.67 -6.02 17.34 -5 17 C-4.89042969 16.35933594 -4.78085938 15.71867188 -4.66796875 15.05859375 C-3.67539672 9.6438309 -2.37541347 4.96677361 0 0 Z " fill="#9E94AA" transform="translate(224,124)"/>
<path d="M0 0 C0.95827504 3.04498611 0.99431517 5.02273931 0.22265625 8.109375 C-0.05288086 9.24052734 -0.05288086 9.24052734 -0.33398438 10.39453125 C-0.53314453 11.17183594 -0.73230469 11.94914062 -0.9375 12.75 C-1.23043945 13.93916016 -1.23043945 13.93916016 -1.52929688 15.15234375 C-2.01124079 17.10362885 -2.50452088 19.05210783 -3 21 C-3.66 21 -4.32 21 -5 21 C-4.42351925 13.64987044 -2.28953836 6.98575424 0 0 Z " fill="#46394C" transform="translate(8,105)"/>
<path d="M0 0 C0.99 0 1.98 0 3 0 C3.33 1.98 3.66 3.96 4 6 C4.66 6 5.32 6 6 6 C6.99 8.97 7.98 11.94 9 15 C4.40596638 10.73411164 0.75098332 6.38335823 0 0 Z " fill="#9A91A7" transform="translate(25,227)"/>
<path d="M0 0 C1.96602147 3.93204293 0.07403722 8.90628745 -1 13 C-2.14947697 15.55245077 -3.44037489 17.66056233 -5 20 C-6.76982406 15.85264121 -5.05314714 12.30447511 -3.625 8.3125 C-3.39039063 7.62349609 -3.15578125 6.93449219 -2.9140625 6.22460938 C-1.16171288 1.16171288 -1.16171288 1.16171288 0 0 Z " fill="#AEA3BB" transform="translate(215,148)"/>
<path d="M0 0 C-6.68284696 3.18230808 -13.77986712 5.38928294 -21 7 C-21.66 6.67 -22.32 6.34 -23 6 C-22.19949219 5.74476563 -22.19949219 5.74476563 -21.3828125 5.484375 C-16.20990597 3.80183793 -11.23374553 1.88166468 -6.26171875 -0.328125 C-3.7258491 -1.08144034 -2.45895378 -0.87779586 0 0 Z " fill="#6E6579" transform="translate(217,295)"/>
<path d="M0 0 C0.66 0 1.32 0 2 0 C2 0.99 2 1.98 2 3 C2.66 3 3.32 3 4 3 C4.26554687 3.71027344 4.53109375 4.42054688 4.8046875 5.15234375 C5.15789063 6.07144531 5.51109375 6.99054688 5.875 7.9375 C6.22304688 8.85402344 6.57109375 9.77054688 6.9296875 10.71484375 C7.7819086 13.14941056 7.7819086 13.14941056 10 14 C10 15.65 10 17.3 10 19 C6.99600559 15.46704136 4.79547138 11.97059208 2.75 7.8125 C2.22921875 6.76707031 1.7084375 5.72164062 1.171875 4.64453125 C0 2 0 2 0 0 Z " fill="#48404F" transform="translate(12,218)"/>
<path d="M0 0 C0.99 0.495 0.99 0.495 2 1 C2.88671875 3.80078125 2.88671875 3.80078125 3.6875 7.3125 C3.95949219 8.46363281 4.23148438 9.61476562 4.51171875 10.80078125 C4.95579704 13.7103822 4.99842122 15.28617052 4 18 C3.32187886 16.1291122 2.6580054 14.25305707 2 12.375 C1.443125 10.80878906 1.443125 10.80878906 0.875 9.2109375 C-0.00483564 5.98225494 -0.15988262 3.32755706 0 0 Z " fill="#8C8598" transform="translate(137,129)"/>
<path d="M0 0 C0.66 0 1.32 0 2 0 C4.44408524 7.3549914 6.47458553 14.2501365 7 22 C5.29649696 19.44474544 4.53986042 17.90679974 3.7109375 15.05859375 C3.49179688 14.31029297 3.27265625 13.56199219 3.046875 12.79101562 C2.82515625 12.01435547 2.6034375 11.23769531 2.375 10.4375 C2.14554687 9.65697266 1.91609375 8.87644531 1.6796875 8.07226562 C0 2.27834356 0 2.27834356 0 0 Z " fill="#B9AFC6" transform="translate(122,85)"/>
<path d="M0 0 C0 3 0 3 -2.046875 5.4453125 C-2.93890625 6.32960938 -3.8309375 7.21390625 -4.75 8.125 C-5.63171875 9.01445312 -6.5134375 9.90390625 -7.421875 10.8203125 C-9.79524738 12.82689097 -10.97723274 13.64687298 -14 14 C-10.12814498 9.03918575 -5.79125711 5.06361292 -1 1 C-0.67 0.67 -0.34 0.34 0 0 Z " fill="#2D2431" transform="translate(264,261)"/>
<path d="M0 0 C0.64453125 1.765625 0.64453125 1.765625 1 4 C0.07421875 5.921875 0.07421875 5.921875 -1.3125 7.75 C-1.76238281 8.36359375 -2.21226563 8.9771875 -2.67578125 9.609375 C-3.11277344 10.06828125 -3.54976562 10.5271875 -4 11 C-4.66 11 -5.32 11 -6 11 C-6 11.99 -6 12.98 -6 14 C-6.66 14 -7.32 14 -8 14 C-6.6744419 10.37723685 -5.05653045 7.36494652 -2.875 4.1875 C-2.33617187 3.39730469 -1.79734375 2.60710937 -1.2421875 1.79296875 C-0.83226562 1.20128906 -0.42234375 0.60960938 0 0 Z " fill="#4B4551" transform="translate(29,65)"/>
<path d="M0 0 C1.47353497 4.63110991 0.44872344 8.46233176 -1 13 C-2.625 15.5625 -2.625 15.5625 -4 17 C-3.58411954 10.80481527 -2.39748106 5.73310689 0 0 Z " fill="#B2A5C0" transform="translate(187,223)"/>
<path d="M0 0 C0.66 0 1.32 0 2 0 C4.98501198 6.37707104 7.93400946 12.9804998 6 20 C4.99513105 17.04329782 3.99693976 14.08438423 3 11.125 C2.71382813 10.28324219 2.42765625 9.44148437 2.1328125 8.57421875 C1.86210938 7.76855469 1.59140625 6.96289062 1.3125 6.1328125 C1.06113281 5.38918457 0.80976562 4.64555664 0.55078125 3.87939453 C0 2 0 2 0 0 Z " fill="#4A4253" transform="translate(122,209)"/>
<path d="M0 0 C0.33 0.66 0.66 1.32 1 2 C0.29296875 3.98828125 0.29296875 3.98828125 -0.8125 6.3125 C-1.18503906 7.11171875 -1.55757812 7.9109375 -1.94140625 8.734375 C-2.29074219 9.48203125 -2.64007813 10.2296875 -3 11 C-3.67834587 12.66194738 -4.35199575 14.32598903 -5 16 C-6.47290575 13.0541885 -5.52363681 11.15522464 -4.75 8 C-4.49734375 6.9275 -4.2446875 5.855 -3.984375 4.75 C-3 2 -3 2 0 0 Z " fill="#413847" transform="translate(229,109)"/>
<path d="M0 0 C2.65860951 2.28611202 3.53565794 4.02133191 4.25 7.4375 C4.42015625 8.19933594 4.5903125 8.96117187 4.765625 9.74609375 C5.01189239 12.11436516 4.71860801 13.74665061 4 16 C3.32586789 14.08594633 2.6609668 12.16863974 2 10.25 C1.62875 9.18265625 1.2575 8.1153125 0.875 7.015625 C0 4 0 4 0 0 Z " fill="#7F758C" transform="translate(93,131)"/>
<path d="M0 0 C4.19567905 6.29351857 5.40735632 12.53180074 5 20 C4.67 20 4.34 20 4 20 C3.32749476 17.41806023 2.66182099 14.83467929 2 12.25 C1.71382813 11.15558594 1.71382813 11.15558594 1.421875 10.0390625 C0.53484036 6.55428354 0 3.61876278 0 0 Z " fill="#716878" transform="translate(300,118)"/>
<path d="M0 0 C1 2 1 2 0.51171875 4.05859375 C0.23972656 4.84363281 -0.03226563 5.62867187 -0.3125 6.4375 C-0.57675781 7.21996094 -0.84101563 8.00242187 -1.11328125 8.80859375 C-2 11 -2 11 -4 14 C-3.66009167 8.62007164 -3.31442207 4.46726453 0 0 Z " fill="#4D4554" transform="translate(187,105)"/>
<path d="M0 0 C3.09592835 3.5087188 4.74194623 6.49197399 6 11 C4.68 11 3.36 11 2 11 C0.80712589 7.12315913 0 4.08378077 0 0 Z " fill="#675D6C" transform="translate(292,77)"/>
<path d="M0 0 C4.71403788 0.47939368 8.66579301 0.96834048 13 3 C13 3.33 13 3.66 13 4 C7.66404866 4.27131956 4.38616179 4.4266889 0 1 C0 0.67 0 0.34 0 0 Z " fill="#585362" transform="translate(204,8)"/>
<path d="M0 0 C3.42949404 3.42949404 4.24791321 6.47356733 4.625 11.25 C4.69976562 12.14203125 4.77453125 13.0340625 4.8515625 13.953125 C4.90054688 14.62859375 4.94953125 15.3040625 5 16 C2.70311431 13.70311431 2.28148697 12.21071829 1.375 9.125 C1.11460938 8.26132813 0.85421875 7.39765625 0.5859375 6.5078125 C0 4 0 4 0 0 Z " fill="#7D7386" transform="translate(118,75)"/>
<path d="M0 0 C1.08557659 3.24215827 0.94015194 5.02321809 -0.3125 8.1875 C-0.57675781 8.88230469 -0.84101563 9.57710937 -1.11328125 10.29296875 C-2 12 -2 12 -4 13 C-3.34 9.7 -2.68 6.4 -2 3 C-1.34 3 -0.68 3 0 3 C0 2.01 0 1.02 0 0 Z " fill="#463F4E" transform="translate(171,151)"/>
<path d="M0 0 C0.33 1.32 0.66 2.64 1 4 C-1.64 5.98 -4.28 7.96 -7 10 C-4.98127747 5.96255494 -2.91899872 3.37989325 0 0 Z " fill="#4A4554" transform="translate(37,55)"/>
<path d="M0 0 C2.31 0 4.62 0 7 0 C7.33 1.32 7.66 2.64 8 4 C9.32 4.33 10.64 4.66 12 5 C11.01 5.495 11.01 5.495 10 6 C7.6171875 5.00390625 7.6171875 5.00390625 4.875 3.5625 C3.96492187 3.08941406 3.05484375 2.61632812 2.1171875 2.12890625 C1.41851562 1.75636719 0.71984375 1.38382813 0 1 C0 0.67 0 0.34 0 0 Z " fill="#645B69" transform="translate(211,18)"/>
<path d="M0 0 C1.93922422 0.45098238 3.87633594 0.91105559 5.8125 1.375 C6.89144531 1.63023437 7.97039062 1.88546875 9.08203125 2.1484375 C12 3 12 3 15 5 C13.24905768 4.93962268 11.49908473 4.85073263 9.75 4.75 C8.77546875 4.70359375 7.8009375 4.6571875 6.796875 4.609375 C3.42182946 3.87402988 2.18858391 2.60545703 0 0 Z " fill="#514959" transform="translate(107,298)"/>
<path d="M0 0 C0.99 0 1.98 0 3 0 C1.41078475 5.36095277 -0.18972938 10.70843973 -2 16 C-3.3805087 12.23331402 -2.59568159 9.55210827 -1.5625 5.75 C-1.27503906 4.67234375 -0.98757812 3.5946875 -0.69140625 2.484375 C-0.46324219 1.66453125 -0.23507813 0.8446875 0 0 Z " fill="#3E3946" transform="translate(213,146)"/>
<path d="M0 0 C0.33 0 0.66 0 1 0 C1 2.64 1 5.28 1 8 C0.34 8 -0.32 8 -1 8 C-1 9.98 -1 11.96 -1 14 C-1.99 14.495 -1.99 14.495 -3 15 C-2.5547115 9.72684667 -1.91626837 4.98229776 0 0 Z " fill="#ACA2B7" transform="translate(12,119)"/>
<path d="M0 0 C1 2 1 2 0.58203125 3.875 C-1.51579094 9.66797093 -1.51579094 9.66797093 -4.1875 11.5 C-4.785625 11.665 -5.38375 11.83 -6 12 C-4.125 6.25 -4.125 6.25 -3 4 C-2.34 4 -1.68 4 -1 4 C-0.67 2.68 -0.34 1.36 0 0 Z " fill="#ADA1BB" transform="translate(25,87)"/>
<path d="M0 0 C4.65987191 3.0657052 5.85485202 5.58657319 7 11 C6.34 11 5.68 11 5 11 C4.731875 10.030625 4.46375 9.06125 4.1875 8.0625 C3.795625 7.051875 3.40375 6.04125 3 5 C2.01 4.67 1.02 4.34 0 4 C0 2.68 0 1.36 0 0 Z " fill="#787082" transform="translate(281,75)"/>
<path d="M0 0 C0.33 0.66 0.66 1.32 1 2 C0.00390625 4.6015625 0.00390625 4.6015625 -1.4375 7.625 C-1.91058594 8.62789062 -2.38367188 9.63078125 -2.87109375 10.6640625 C-3.24363281 11.43492188 -3.61617187 12.20578125 -4 13 C-5.11672285 9.64983146 -4.92467164 9.07440438 -3.6875 5.9375 C-3.42324219 5.24527344 -3.15898437 4.55304688 -2.88671875 3.83984375 C-2 2 -2 2 0 0 Z " fill="#423D49" transform="translate(236,90)"/>
<path d="M0 0 C0.33 0 0.66 0 1 0 C1.45732667 5.71658336 0.52273754 8.48649253 -3 13 C-4 11 -4 11 -3.22265625 8.3984375 C-2.83980469 7.40070313 -2.45695313 6.40296875 -2.0625 5.375 C-1.68222656 4.37210937 -1.30195313 3.36921875 -0.91015625 2.3359375 C-0.60980469 1.56507812 -0.30945313 0.79421875 0 0 Z " fill="#C4B8CF" transform="translate(239,84)"/>
<path d="M0 0 C4.12751449 0.60698743 7.3321148 2.03810791 11 4 C11 4.66 11 5.32 11 6 C8.75 6.25 8.75 6.25 6 6 C3.8125 4.125 3.8125 4.125 2 2 C1.34 1.34 0.68 0.68 0 0 Z " fill="#696171" transform="translate(217,12)"/>
<path d="M0 0 C0.33 0 0.66 0 1 0 C1.29296875 6.0546875 1.29296875 6.0546875 1 8 C0.01 8.66 -0.98 9.32 -2 10 C-1.85950482 8.52031676 -1.71245174 7.04125484 -1.5625 5.5625 C-1.48128906 4.73878906 -1.40007812 3.91507813 -1.31640625 3.06640625 C-1 1 -1 1 0 0 Z " fill="#46404F" transform="translate(299,201)"/>
<path d="M0 0 C3 2 3 2 3.73046875 4.6015625 C3.88128906 5.59929687 4.03210938 6.59703125 4.1875 7.625 C4.34605469 8.62789062 4.50460938 9.63078125 4.66796875 10.6640625 C4.77753906 11.43492187 4.88710937 12.20578125 5 13 C2.02392792 10.25222934 1.04593585 7.94237359 0 4 C0 2.68 0 1.36 0 0 Z " fill="#857890" transform="translate(100,151)"/>
<path d="M0 0 C0.66 0 1.32 0 2 0 C2 0.99 2 1.98 2 3 C2.66 3 3.32 3 4 3 C4 5.64 4 8.28 4 11 C0 5 0 5 0 0 Z " fill="#4A424F" transform="translate(84,106)"/>
<path d="M0 0 C3.45195767 1.4258086 5.1014256 3.09746334 7.25 6.125 C8.03117187 7.21167969 8.03117187 7.21167969 8.828125 8.3203125 C9.40820312 9.15175781 9.40820312 9.15175781 10 10 C4.72106048 7.45154644 2.46718784 5.40431623 0 0 Z " fill="#A196A7" transform="translate(250,41)"/>
<path d="M0 0 C2.97 0 5.94 0 9 0 C5.99382731 3.00617269 3.17618402 2.59585316 -1 3 C-0.67 2.01 -0.34 1.02 0 0 Z " fill="#58525E" transform="translate(197,306)"/>
<path d="M0 0 C0.33 0.66 0.66 1.32 1 2 C-0.21484375 4.3828125 -0.21484375 4.3828125 -1.9375 7.125 C-2.50339844 8.03507813 -3.06929688 8.94515625 -3.65234375 9.8828125 C-4.09707031 10.58148438 -4.54179687 11.28015625 -5 12 C-5.68359375 10.265625 -5.68359375 10.265625 -6 8 C-4.78515625 5.859375 -4.78515625 5.859375 -3.0625 3.75 C-2.49660156 3.04359375 -1.93070312 2.3371875 -1.34765625 1.609375 C-0.90292969 1.07828125 -0.45820313 0.5471875 0 0 Z " fill="#736D80" transform="translate(292,235)"/>
<path d="M0 0 C0.33 0.66 0.66 1.32 1 2 C0.22265625 4.1640625 0.22265625 4.1640625 -0.9375 6.625 C-1.31777344 7.44226563 -1.69804687 8.25953125 -2.08984375 9.1015625 C-2.39019531 9.72804687 -2.69054687 10.35453125 -3 11 C-3.33 11 -3.66 11 -4 11 C-4 8.69 -4 6.38 -4 4 C-3.01 4 -2.02 4 -1 4 C-0.67 2.68 -0.34 1.36 0 0 Z " fill="#6F6679" transform="translate(302,215)"/>
<path d="M0 0 C0.33 0 0.66 0 1 0 C1 1.98 1 3.96 1 6 C0.34 6 -0.32 6 -1 6 C-1.33 8.31 -1.66 10.62 -2 13 C-3.18771723 9.57056481 -2.80226223 7.62215325 -1.5625 4.25 C-1.27503906 3.45078125 -0.98757812 2.6515625 -0.69140625 1.828125 C-0.46324219 1.22484375 -0.23507813 0.6215625 0 0 Z " fill="#B3A9C0" transform="translate(163,169)"/>
<path d="M0 0 C0.99 0.495 0.99 0.495 2 1 C2 1.99 2 2.98 2 4 C2.66 4 3.32 4 4 4 C4.33 6.64 4.66 9.28 5 12 C1.66226291 8.35883227 1.02135098 4.71392758 0 0 Z " fill="#38323D" transform="translate(106,165)"/>
<path d="M0 0 C3.31038651 1.65519326 3.78867011 4.65442221 5 8 C4.67 8.99 4.34 9.98 4 11 C3.34 10.67 2.68 10.34 2 10 C1.3671875 7.71484375 1.3671875 7.71484375 0.875 4.9375 C0.70742187 4.01839844 0.53984375 3.09929687 0.3671875 2.15234375 C0.24601562 1.44207031 0.12484375 0.73179687 0 0 Z " fill="#49434F" transform="translate(97,141)"/>
<path d="M0 0 C1.9375 1.0625 1.9375 1.0625 4 3 C4.75 6.6875 4.75 6.6875 5 10 C4.67 9.34 4.34 8.68 4 8 C3.34 8 2.68 8 2 8 C1.34 5.36 0.68 2.72 0 0 Z " fill="#413B4A" transform="translate(90,123)"/>
<path d="M0 0 C0.66 0.33 1.32 0.66 2 1 C-1.61328125 5.6875 -1.61328125 5.6875 -3 7 C-3.99 7 -4.98 7 -6 7 C-4.60667426 3.63279613 -3.0210714 2.0140476 0 0 Z " fill="#514955" transform="translate(63,30)"/>
<path d="M0 0 C0.33 0.99 0.66 1.98 1 3 C-0.21484375 4.82421875 -0.21484375 4.82421875 -1.9375 6.6875 C-2.50339844 7.31011719 -3.06929688 7.93273437 -3.65234375 8.57421875 C-4.09707031 9.04472656 -4.54179687 9.51523437 -5 10 C-5.66 9.67 -6.32 9.34 -7 9 C-4.69 6.03 -2.38 3.06 0 0 Z " fill="#302732" transform="translate(274,249)"/>
<path d="M0 0 C1.32 0.33 2.64 0.66 4 1 C4 1.66 4 2.32 4 3 C4.66 3 5.32 3 6 3 C6 4.65 6 6.3 6 8 C1.125 3.375 1.125 3.375 0 0 Z " fill="#37333D" transform="translate(29,248)"/>
<path d="M0 0 C0.66 0.33 1.32 0.66 2 1 C-0.97 4.96 -0.97 4.96 -4 9 C-5 7 -5 7 -4.75 4.9375 C-4.5025 4.298125 -4.255 3.65875 -4 3 C-3.01 2.67 -2.02 2.34 -1 2 C-0.67 1.34 -0.34 0.68 0 0 Z " fill="#AD9EB3" transform="translate(274,246)"/>
<path d="M0 0 C2.7972908 2.06756277 3.02692273 3.14440371 3.6875 6.6875 C3.790625 7.780625 3.89375 8.87375 4 10 C1 8 1 8 0.48828125 6.0546875 C0.32552083 4.03645833 0.16276042 2.01822917 0 0 Z " fill="#70697D" transform="translate(118,199)"/>
<path d="M0 0 C1.46911544 3.81970016 0.52561108 6.30641529 -1 10 C-1.66 10.66 -2.32 11.32 -3 12 C-2.14285714 3.42857143 -2.14285714 3.42857143 0 0 Z " fill="#6A6274" transform="translate(178,128)"/>
<path d="M0 0 C2.33333823 2.12121657 3.9148886 4.01594365 5 7 C4.625 9.25 4.625 9.25 4 11 C3.67 9.68 3.34 8.36 3 7 C2.34 7 1.68 7 1 7 C0.67 4.69 0.34 2.38 0 0 Z " fill="#A599B1" transform="translate(289,90)"/>
<path d="M0 0 C0.99 0.33 1.98 0.66 3 1 C3.33 4.3 3.66 7.6 4 11 C1.6870518 8.6870518 1.50419025 7.52095125 0.875 4.375 C0.70742187 3.55773437 0.53984375 2.74046875 0.3671875 1.8984375 C0.24601563 1.27195313 0.12484375 0.64546875 0 0 Z " fill="#433C4C" transform="translate(8,206)"/>
<path d="M0 0 C0.98120464 3.05263664 0.98120464 4.94736336 0 8 C-0.66 8 -1.32 8 -2 8 C-2.33 8.99 -2.66 9.98 -3 11 C-2.25 3.375 -2.25 3.375 0 0 Z " fill="#9C91A9" transform="translate(182,115)"/>
<path d="M0 0 C3.77545388 1.09068668 6.47043472 1.9083091 9 5 C7.68428397 4.7452486 6.37239624 4.47065859 5.0625 4.1875 C4.33160156 4.03667969 3.60070312 3.88585937 2.84765625 3.73046875 C2.23792969 3.48941406 1.62820312 3.24835938 1 3 C0.67 2.01 0.34 1.02 0 0 Z " fill="#504955" transform="translate(75,283)"/>
<path d="M0 0 C2.0625 2.25 2.0625 2.25 4 5 C3.75 7.3125 3.75 7.3125 3 9 C2.34 8.67 1.68 8.34 1 8 C0.40644386 5.35139573 0.25790731 2.70802678 0 0 Z " fill="#504A56" transform="translate(21,220)"/>
<path d="M0 0 C2 2 2 2 2 5 C3.32 4.67 4.64 4.34 6 4 C6 4.99 6 5.98 6 7 C4.35 6.67 2.7 6.34 1 6 C0.67 4.02 0.34 2.04 0 0 Z " fill="#3C3A44" transform="translate(154,184)"/>
<path d="M0 0 C0.33 0 0.66 0 1 0 C1 2.64 1 5.28 1 8 C0.34 8 -0.32 8 -1 8 C-1.33 8.66 -1.66 9.32 -2 10 C-1.125 2.25 -1.125 2.25 0 0 Z " fill="#9B93A5" transform="translate(207,168)"/>
<path d="M0 0 C0.6875 1.6875 0.6875 1.6875 1 4 C-0.3125 6.75 -0.3125 6.75 -2 9 C-2.66 9 -3.32 9 -4 9 C-2.94124926 5.59687262 -1.99097846 2.98646769 0 0 Z " fill="#4C4656" transform="translate(20,79)"/>
<path d="M0 0 C2.5 2.3125 2.5 2.3125 5 5 C5 5.99 5 6.98 5 8 C2.5 6.25 2.5 6.25 0 4 C0 2.68 0 1.36 0 0 Z " fill="#776D7D" transform="translate(281,61)"/>
<path d="M0 0 C1.65 0 3.3 0 5 0 C5 0.66 5 1.32 5 2 C5.66 2 6.32 2 7 2 C7.33 2.99 7.66 3.98 8 5 C4.62496331 3.8141763 2.35277269 2.72426311 0 0 Z " fill="#3E3641" transform="translate(74,290)"/>
<path d="M0 0 C2.29633824 3.44450737 2.54016485 5.93812283 3 10 C2.67 9.34 2.34 8.68 2 8 C1.34 8 0.68 8 0 8 C0 5.36 0 2.72 0 0 Z " fill="#C7BAD6" transform="translate(90,125)"/>
<path d="M0 0 C0.99 0.495 0.99 0.495 2 1 C2.59355614 3.64860427 2.74209269 6.29197322 3 9 C2.67 8.34 2.34 7.68 2 7 C1.34 7 0.68 7 0 7 C0 4.69 0 2.38 0 0 Z " fill="#695D70" transform="translate(130,111)"/>
</svg>
